<?xml version="1.0" encoding="UTF-8"?>
<!DOCTYPE svg PUBLIC "-//W3C//DTD SVG 1.1//EN" "http://www.w3.org/Graphics/SVG/1.1/DTD/svg11.dtd">
<!-- Creator: CorelDRAW 2021 (64-Bit) -->
<svg xmlns="http://www.w3.org/2000/svg" xml:space="preserve" width="111.559mm" height="30.093mm" version="1.1" shape-rendering="geometricPrecision" text-rendering="geometricPrecision" image-rendering="optimizeQuality" fill-rule="evenodd" clip-rule="evenodd"
viewBox="0 0 11155.9 3009.3"
 xmlns:xlink="http://www.w3.org/1999/xlink"
 xmlns:xodm="http://www.corel.com/coreldraw/odm/2003">
 <g id="Layer_x0020_1">
  <metadata id="CorelCorpID_0Corel-Layer"/>
  <g id="_2264095436528">
   <g>
    <path fill="#26D07C" stroke="#26D07C" stroke-width="14.11" stroke-linecap="square" stroke-miterlimit="22.9256" d="M8406.26 1465.35c1.85,-106.66 -5.29,-180.48 -109,-262.1 -61.17,-48.15 -90.62,-67.79 -220.02,-157.52l0 715.45c0,170.69 0,341.38 0,512.07 0,64.99 -2.47,140.22 2.54,203.66 7.11,89.97 54.42,146.68 126.12,197.88 66.3,47.36 133.78,94.11 200.36,141.28 0,-450.24 0,-900.48 0,-1350.72z"/>
    <path fill="#26D07C" stroke="#26D07C" stroke-width="14.11" stroke-linecap="square" stroke-miterlimit="22.9256" d="M8613.68 1203.25c-103.71,81.62 -110.85,155.44 -109,262.1 0,450.24 0,900.48 0,1350.72 66.58,-47.17 134.06,-93.92 200.36,-141.28 71.7,-51.2 119.01,-107.91 126.12,-197.88 5.01,-63.44 2.54,-138.67 2.54,-203.66 0,-170.69 0,-341.38 0,-512.07l0 -715.45c-129.4,89.73 -158.85,109.37 -220.02,157.52z"/>
    <path fill="#26D07C" stroke="#26D07C" stroke-width="14.11" stroke-linecap="square" stroke-miterlimit="22.9256" d="M8500.68 1288.71c52.48,-138.19 156.7,-213.44 283.02,-301.89 164.96,-115.51 329.92,-231.01 494.88,-346.51 60.53,-42.39 104.9,-90.77 130.92,-149.75 28.52,-64.66 35.77,-140.64 35.69,-197.84l-0.23 -200.68c-303.99,212.86 -495.43,346.9 -762.22,533.71 -192.38,129.75 -181.51,306.8 -182.01,421.85 -0.34,77.49 1.35,108.38 -0.05,241.11z"/>
    <path fill="#26D07C" stroke="#26D07C" stroke-width="14.11" stroke-linecap="square" stroke-miterlimit="22.9256" d="M8409.88 1047.6c-0.5,-115.05 10.37,-292.1 -182.01,-421.85 -266.79,-186.81 -458.23,-320.85 -762.22,-533.71l-0.23 200.68c-0.08,57.2 7.17,133.18 35.69,197.84 26.02,58.98 70.39,107.36 130.92,149.75 164.96,115.5 329.92,231 494.88,346.51 126.32,88.45 230.54,163.7 283.02,301.89 -1.4,-132.73 0.29,-163.62 -0.05,-241.11z"/>
    <path fill="#0C86D9" stroke="#0C86D9" stroke-width="14.11" stroke-linecap="square" stroke-miterlimit="22.9256" d="M8203.52 284.88c0,142.41 115.45,257.86 257.86,257.86 142.41,0 257.86,-115.45 257.86,-257.86 0,-142.41 -115.45,-257.86 -257.86,-257.86 -142.41,0 -257.86,115.45 -257.86,257.86z"/>
   </g>
   <g>
    <polygon fill="#26D07C" fill-rule="nonzero" stroke="#26D07C" stroke-width="20" stroke-linecap="square" stroke-miterlimit="22.9256" points="10935.26,2567.81 11085.54,2567.81 11085.54,1464.37 10935.26,1464.37 "/>
    <path fill="#26D07C" fill-rule="nonzero" stroke="#26D07C" stroke-width="20" stroke-linecap="round" stroke-linejoin="round" stroke-miterlimit="22.9256" d="M11012.94 1262.16c67.36,0 116.76,-51.64 116.76,-116.75 0,-60.63 -51.65,-110.03 -116.76,-110.03 -65.11,0 -116.76,51.64 -116.76,112.27 0,62.87 51.65,114.51 116.76,114.51z"/>
    <path fill="#26D07C" stroke="#26D07C" stroke-width="20" stroke-linecap="square" stroke-miterlimit="22.9256" d="M9797.22 2430.02c-232.45,2.32 -374.35,-169.55 -405.8,-365.31l947.34 0c2.84,-32.8 3.78,-43.49 3.78,-65.72 0,-312.23 -233.09,-555.32 -545.32,-555.32 -282.54,0 -516.67,207.26 -558.62,478.05l-210.72 0 0 142.99 207.81 0c32.56,281.25 271.54,509.59 561.53,509.59 229.08,0 426.32,-136.25 515.13,-332.11l-176.61 0c-74.14,107.42 -198.12,186.43 -338.52,187.83zm-401.75 -508.3c40.01,-185.09 204.69,-323.76 401.75,-323.76 197.06,0 368,118.53 371.75,323.76l-773.5 0z"/>
    <polygon fill="#26D07C" fill-rule="nonzero" stroke="#26D07C" stroke-width="20" stroke-linecap="round" stroke-miterlimit="22.9256" points="10538.16,1027.3 10688.44,1027.3 10688.44,2563.31 10538.16,2563.31 "/>
    <path fill="#0C86D9" fill-rule="nonzero" stroke="#0C86D9" stroke-width="26.46" stroke-linecap="round" stroke-miterlimit="22.9256" d="M2913.22 1462.26l0 210.08c-89.78,-142.85 -236.69,-218.49 -408.08,-218.49 -306.06,0 -534.57,226.89 -534.57,560.92 0,334.02 228.51,563 534.57,563 177.51,0 326.46,-79.83 414.2,-228.98l0 218.48 138.74 0 0 -1105.01 -144.86 0zm-395.84 983.16c-228.51,0 -399.9,-172.26 -399.9,-430.65 0,-258.4 171.39,-430.67 399.9,-430.67 226.48,0 397.88,172.27 397.88,430.67 0,258.39 -171.4,430.65 -397.88,430.65z"/>
    <polygon fill="#0C86D9" fill-rule="nonzero" stroke="#0C86D9" stroke-width="26.46" stroke-linecap="round" stroke-miterlimit="22.9256" points="7428.29,1027.3 7578.57,1027.3 7578.57,2563.31 7428.29,2563.31 "/>
    <path fill="#0C86D9" fill-rule="nonzero" stroke="#0C86D9" stroke-width="26.46" stroke-linecap="round" stroke-miterlimit="22.9256" d="M7040.72 1453.85l0 584.2c0,254 -139.85,404.29 -362.82,404.29 -202.68,0 -320.24,-120.65 -320.24,-357.72l0 -630.77 -143.91 0 0 645.59c0,319.61 178.36,478.36 449.97,478.36 170.26,0 298.08,-78.31 373.08,-213.78l0 203.2 147.83 0 0 -1113.37 -143.91 0z"/>
    <path fill="#0C86D9" fill-rule="nonzero" stroke="#0C86D9" stroke-width="26.46" stroke-linecap="square" stroke-miterlimit="22.9256" d="M5601.59 1453.85c-177.85,0 -318.26,90.37 -389.39,233.29 -59.9,-155.53 -187.21,-233.29 -350.08,-233.29 -164.74,0 -282.02,77.76 -351.29,210.17l0 -191.83 -137.3 0 0 1095.54 142.91 0 0 -580.05c0,-252.2 119.16,-399.32 319.48,-399.32 179.72,0 284.55,119.79 284.55,353.08l0 626.29 142.92 0 0 -580.05c0,-305.2 164.75,-407.18 319.48,-399.32 177.61,9.01 282.68,119.79 282.68,353.08l0 626.29 142.91 0 0 -641c0,-317.35 -167.25,-472.88 -406.87,-472.88z"/>
    <path fill="#0C86D9" fill-rule="nonzero" stroke="#0C86D9" stroke-width="26.46" stroke-linecap="square" stroke-miterlimit="22.9256" d="M1450.18 1738.75l0 -266.49 -146.99 0 0 1095.32 153.47 0 0 -563.17c0,-140.48 144.84,-407.66 382.62,-407.66 10.81,0 23.78,2.1 36.75,2.1l0 -145c-209.68,0 -354.52,137.8 -425.85,284.9z"/>
    <path fill="#0C86D9" fill-rule="nonzero" stroke="#0C86D9" stroke-width="17.64" stroke-linecap="square" stroke-miterlimit="22.9256" d="M4150.52 1759.23l-156.69 0c-3.72,-106.48 -100.63,-162.87 -218.54,-174.79 -107.89,-10.9 -337.31,19.73 -327.98,175.86 8.08,135.3 188.82,152.13 293.89,174.71 142.06,30.53 343.34,77.58 413.73,220.36 48.83,99.02 26.38,247.77 -54.42,326.42 -152.27,148.22 -520.02,142.81 -688.95,19.19 -96.27,-70.45 -137.47,-160.15 -141.11,-271.98l156.7 0.01c7.26,291.88 540.65,274.88 600.36,103 24.29,-69.92 -11.73,-142.07 -71.04,-180.3 -74.96,-48.32 -185.43,-60.6 -271.83,-80.98 -113.99,-27.73 -301.21,-68.3 -354.19,-185.56 -51.28,-113.52 -16.19,-265.17 83.6,-343.91 154.92,-122.21 448.51,-119.11 607.74,-12.41 77.65,52.02 118.37,126.02 128.73,230.38z"/>
    <path fill="#0C86D9" fill-rule="nonzero" stroke="#0C86D9" stroke-width="26.46" stroke-linecap="square" stroke-miterlimit="22.9256" d="M576.5 1453.85c-177.43,0 -326.31,80.44 -414,228.61l0 -220.14 -138.68 0 0 1524 144.79 0 0 -620.18c89.74,143.93 236.58,220.13 407.89,220.13 305.91,0 534.32,-228.6 534.32,-567.26 0,-336.55 -228.41,-565.16 -534.32,-565.16zm-10.21 999.07c-228.4,0 -399.71,-173.56 -399.71,-433.91 0,-258.24 171.31,-433.92 399.71,-433.92 226.38,0 399.73,175.68 399.73,433.92 0,260.35 -173.35,433.91 -399.73,433.91z"/>
   </g>
  </g>
 </g>
</svg>
