<svg width="21" height="21" viewBox="0 0 21 21" fill="none" xmlns="http://www.w3.org/2000/svg">
<path d="M10.5 0.539062C8.52992 0.539062 6.60407 1.12326 4.966 2.21778C3.32794 3.3123 2.05122 4.86799 1.2973 6.68811C0.543378 8.50824 0.346119 10.5111 0.730464 12.4433C1.11481 14.3755 2.0635 16.1504 3.45656 17.5434C4.84962 18.9365 6.62449 19.8852 8.55672 20.2695C10.489 20.6539 12.4918 20.4566 14.3119 19.7027C16.132 18.9488 17.6877 17.6721 18.7822 16.034C19.8767 14.3959 20.4609 12.4701 20.4609 10.5C20.4578 7.85915 19.4074 5.32735 17.54 3.45998C15.6727 1.59261 13.1409 0.542164 10.5 0.539062ZM4.97657 17.3359C5.5496 16.3831 6.3594 15.5947 7.32726 15.0473C8.29511 14.5 9.3881 14.2123 10.5 14.2123C11.6119 14.2123 12.7049 14.5 13.6728 15.0473C14.6406 15.5947 15.4504 16.3831 16.0234 17.3359C14.4613 18.6027 12.5112 19.294 10.5 19.294C8.4888 19.294 6.53871 18.6027 4.97657 17.3359ZM7.17969 9.71875C7.17969 9.06205 7.37442 8.42011 7.73927 7.87408C8.10411 7.32806 8.62267 6.90249 9.22938 6.65118C9.83608 6.39987 10.5037 6.33412 11.1478 6.46224C11.7918 6.59035 12.3835 6.90658 12.8478 7.37093C13.3122 7.83529 13.6284 8.42691 13.7565 9.07099C13.8846 9.71507 13.8189 10.3827 13.5676 10.9894C13.3163 11.5961 12.8907 12.1146 12.3447 12.4795C11.7986 12.8443 11.1567 13.0391 10.5 13.0391C9.6194 13.0391 8.77487 12.6892 8.15219 12.0666C7.52951 11.4439 7.17969 10.5994 7.17969 9.71875ZM16.8975 16.5195C15.9768 15.088 14.6007 14.0085 12.9912 13.4551C13.7938 12.9205 14.403 12.1419 14.7289 11.2343C15.0548 10.3268 15.0799 9.33842 14.8007 8.41544C14.5215 7.49246 13.9526 6.68384 13.1783 6.10912C12.404 5.53441 11.4653 5.22411 10.501 5.22411C9.53668 5.22411 8.59798 5.53441 7.82366 6.10912C7.04934 6.68384 6.48051 7.49246 6.20127 8.41544C5.92203 9.33842 5.9472 10.3268 6.27306 11.2343C6.59892 12.1419 7.20818 12.9205 8.01075 13.4551C6.40124 14.0085 5.02513 15.088 4.1045 16.5195C2.92757 15.2706 2.14202 13.7044 1.84477 12.0143C1.54752 10.3241 1.75157 8.58388 2.43175 7.00833C3.11193 5.43278 4.23847 4.09081 5.67239 3.14801C7.10632 2.20521 8.78488 1.70282 10.501 1.70282C12.2171 1.70282 13.8956 2.20521 15.3296 3.14801C16.7635 4.09081 17.89 5.43278 18.5702 7.00833C19.2504 8.58388 19.4544 10.3241 19.1572 12.0143C18.8599 13.7044 18.0744 15.2706 16.8975 16.5195Z" fill="currentColor"/>
</svg>
